<svg width="18" height="20" viewBox="0 0 18 20" fill="none" xmlns="http://www.w3.org/2000/svg">
<path d="M5 4C4.44772 4 4 4.44772 4 5C4 5.55229 4.44772 6 5 6H13C13.5523 6 14 5.55229 14 5C14 4.44772 13.5523 4 13 4H5Z" fill="white"/>
<path d="M4 9C4 8.44772 4.44772 8 5 8H13C13.5523 8 14 8.44772 14 9C14 9.55229 13.5523 10 13 10H5C4.44772 10 4 9.55229 4 9Z" fill="white"/>
<path d="M5 12C4.44772 12 4 12.4477 4 13C4 13.5523 4.44772 14 5 14H9C9.55228 14 10 13.5523 10 13C10 12.4477 9.55228 12 9 12H5Z" fill="white"/>
<path fill-rule="evenodd" clip-rule="evenodd" d="M2 0C0.895431 0 0 0.895431 0 2V18C0 19.1046 0.89543 20 2 20H16C17.1046 20 18 19.1046 18 18V2C18 0.895431 17.1046 0 16 0H2ZM16 2H2L2 18H10.5622L16 12.109V2ZM16 18H13.284L16 15.0577V18Z" fill="white"/>
</svg>
