<svg width="18" height="20" viewBox="0 0 18 20" fill="none" xmlns="http://www.w3.org/2000/svg">
<path d="M8 9C8 8.44772 8.44771 8 9 8H13C13.5523 8 14 8.44772 14 9C14 9.55229 13.5523 10 13 10H9C8.44771 10 8 9.55229 8 9Z" fill="white"/>
<path d="M9 11C8.44771 11 8 11.4477 8 12C8 12.5523 8.44771 13 9 13H13C13.5523 13 14 12.5523 14 12C14 11.4477 13.5523 11 13 11H9Z" fill="white"/>
<path fill-rule="evenodd" clip-rule="evenodd" d="M0 2C0 0.89543 0.895431 0 2 0H13C14.1046 0 15 0.895431 15 2V4H16C17.1046 4 18 4.89543 18 6V18C18 19.1046 17.1046 20 16 20H6C4.89543 20 4 19.1046 4 18V17H2C0.89543 17 0 16.1046 0 15V2ZM13.284 18H16V15.0577L13.284 18ZM16 12.109L10.5622 18H6V6H16V12.109ZM13 2V4H6C4.89543 4 4 4.89543 4 6V15H2V2H13Z" fill="white"/>
</svg>
