<svg width="25" height="38" viewBox="0 0 25 38" fill="none" xmlns="http://www.w3.org/2000/svg">
<path fill-rule="evenodd" clip-rule="evenodd" d="M11.6891 6.33248C10.4014 7.82114 9.60675 10.2386 9.60675 13.895V17.9948H4V19.7663H9.60675V34H12.3556V21.7663H14.3556V19.7788H18.5375L19.1669 18.0074H12.3556V13.9704C12.3556 11.6315 12.7576 9.44285 14.077 7.97902C14.6187 7.37808 15.2683 6.83795 16.1297 6.47075C16.9762 6.10992 17.8945 5.97263 18.8981 5.97263C19.3286 5.97263 19.6847 5.98469 20 6.00649V4.1619C19.5416 4.06038 19.0257 4 18.0805 4C14.9127 4 12.9286 4.89953 11.6891 6.33248ZM16.3556 23.7788V38H5.60675V23.7663H0V13.9948H5.60675V13.895C5.60675 9.75548 6.49283 6.22545 8.6639 3.7156C10.8832 1.15002 14.136 0 18.0805 0C20.0432 0 21.0215 0.275419 21.8301 0.503067C22.0441 0.563293 22.2461 0.620175 22.4514 0.667729L24 1.0265V10.6918L21.6661 10.2966C21.3816 10.2485 21.1472 10.2065 20.9445 10.1703C20.1441 10.0271 19.8399 9.97263 18.8981 9.97263C18.2535 9.97263 17.9064 10.0617 17.6983 10.1504C17.5052 10.2327 17.3112 10.3653 17.0482 10.6571C16.7583 10.9787 16.3556 11.8833 16.3556 13.9704V14.0074H24.8331L21.3613 23.7788H16.3556Z" fill="white"/>
</svg>
