<svg width="34" height="34" viewBox="0 0 34 34" fill="none" xmlns="http://www.w3.org/2000/svg">
<path fill-rule="evenodd" clip-rule="evenodd" d="M7.001 4.04004C5.35318 4.04004 4 5.39322 4 7.04104V26.959C4 28.6069 5.35318 29.96 7.001 29.96H26.919C28.5791 29.96 29.92 28.6192 29.92 26.959V7.04104C29.92 5.39322 28.5668 4.04004 26.919 4.04004H7.001ZM0 7.04104C0 3.18408 3.14404 0.0400391 7.001 0.0400391H26.919C30.776 0.0400391 33.92 3.18408 33.92 7.04104V26.959C33.92 30.8283 30.7882 33.96 26.919 33.96H7.001C3.14404 33.96 0 30.816 0 26.959V7.04104Z" fill="white"/>
<path fill-rule="evenodd" clip-rule="evenodd" d="M16.9662 11.3267C15.4441 11.3267 14.0238 11.915 12.9493 12.9895C11.8748 14.064 11.2865 15.4843 11.2865 17.0063C11.2865 18.5284 11.8748 19.9487 12.9493 21.0232C14.0238 22.0977 15.4441 22.686 16.9662 22.686C18.482 22.686 19.8936 22.1019 20.986 21.0202C22.0586 19.946 22.6458 18.527 22.6458 17.0063C22.6458 15.4843 22.0575 14.064 20.983 12.9895C19.9085 11.915 18.4882 11.3267 16.9662 11.3267ZM10.1209 10.1611C11.9462 8.33573 14.3842 7.32666 16.9662 7.32666C19.5481 7.32666 21.9861 8.33573 23.8114 10.1611C25.6368 11.9864 26.6458 14.4244 26.6458 17.0063C26.6458 19.5883 25.6368 22.0263 23.8114 23.8516L23.8055 23.8576L23.8055 23.8576C21.9739 25.6737 19.553 26.686 16.9662 26.686C14.3842 26.686 11.9462 25.6769 10.1209 23.8516C8.29557 22.0263 7.2865 19.5883 7.2865 17.0063C7.2865 14.4244 8.29556 11.9864 10.1209 10.1611Z" fill="white"/>
<path fill-rule="evenodd" clip-rule="evenodd" d="M26.1427 8.1251C26.433 8.1251 26.6683 7.88982 26.6683 7.59958C26.6683 7.30935 26.433 7.07407 26.1427 7.07407C25.8525 7.07407 25.6172 7.30935 25.6172 7.59958C25.6172 7.88982 25.8525 8.1251 26.1427 8.1251ZM22.6682 7.59958C22.6682 5.68062 24.2238 4.125 26.1427 4.125C28.0617 4.125 29.6173 5.68062 29.6173 7.59958C29.6173 9.51854 28.0617 11.0742 26.1427 11.0742C24.2238 11.0742 22.6682 9.51854 22.6682 7.59958Z" fill="white"/>
</svg>
