<svg width="50" height="34" viewBox="0 0 50 34" fill="none" xmlns="http://www.w3.org/2000/svg">
<path fill-rule="evenodd" clip-rule="evenodd" d="M10.1493 4.04004C7.426 4.04004 4.91992 6.50106 4.91992 9.93609V24.064C4.91992 27.4874 7.41535 29.96 10.1493 29.96H40.0718C42.8148 29.96 45.3139 27.4966 45.3012 24.0714L45.3012 24.064V9.93609C45.3012 6.51269 42.8058 4.04004 40.0718 4.04004H10.1493ZM0.919922 9.93609C0.919922 4.62527 4.89763 0.0400391 10.1493 0.0400391H40.0718C45.3453 0.0400391 49.3012 4.64905 49.3012 9.93609V24.0609C49.3187 29.3798 45.3348 33.96 40.0718 33.96H10.1493C4.87586 33.96 0.919922 29.351 0.919922 24.064V9.93609Z" fill="white"/>
<path fill-rule="evenodd" clip-rule="evenodd" d="M18.3733 6.05811L36.9645 16.7788L18.3733 27.4995V6.05811ZM22.3733 12.9821V20.5755L28.9573 16.7788L22.3733 12.9821Z" fill="white"/>
</svg>
